<svg xmlns="http://www.w3.org/2000/svg" viewBox="0 0 245.31 69.25"><defs><style>.cls-1{fill:#d8d8d8;}.cls-2{fill:none;}</style></defs><title>Asset 18</title><g id="Layer_2" data-name="Layer 2"><g id="Layer_1-2" data-name="Layer 1"><path class="cls-1" d="M25.75,49.18c4-2.84,6.21-6.87,6.61-12.33a23.57,23.57,0,0,0-.13-4.11.63.63,0,0,0,0-.16H15.77V40h7.07l-.19.39a6,6,0,0,1-1.79,2,7.34,7.34,0,0,1-4.33,1.26h-.05a7,7,0,0,1-5.6-2.51A8.51,8.51,0,0,1,9,34.66a7.83,7.83,0,0,1,3.28-6,7.36,7.36,0,0,1,5-1.21,5.36,5.36,0,0,1,4.65,3l0,0,.08,0,6.86-1.72,2.24-.56h0L31.14,28a12.79,12.79,0,0,0-5.47-6.53,17.09,17.09,0,0,0-9-2.41q-.8,0-1.62.06a15.86,15.86,0,0,0-8.38,3.07A16.28,16.28,0,0,0,.36,38.87a15.68,15.68,0,0,0,9,11.5,16.77,16.77,0,0,0,10.22,1.27A15.15,15.15,0,0,0,25.75,49.18Z"/><path class="cls-1" d="M53.3,40.56l.35-.14A9.82,9.82,0,0,0,59.08,35a12.13,12.13,0,0,0,.69-6.84,9.58,9.58,0,0,0-4.18-6.62,11.12,11.12,0,0,0-6.38-1.77H33V51.17h8.84V41.39l.27,0h.38a.69.69,0,0,1,.59.28l3.55,4.43c1.31,1.62,2.61,3.25,3.92,4.88a.48.48,0,0,0,.43.22H61.24L52.76,40.77Zm-4.15-6.63a6.43,6.43,0,0,1-1.95.36c-.7,0-1.4,0-2.11,0H42.34l-.21,0-.35,0v-2q0-2.16,0-4.32a.66.66,0,0,1,.15-.5.67.67,0,0,1,.47-.16h1.76c1,0,2,0,3,0a6.65,6.65,0,0,1,2.11.38,3.11,3.11,0,0,1,2,3.06A3.21,3.21,0,0,1,49.15,33.93Z"/><path class="cls-1" d="M105.66,50.74A8.45,8.45,0,0,0,112,40.44a5.76,5.76,0,0,0-2.1-3.64,6.5,6.5,0,0,0-3.71-1.33l-.36,0-.38-.06.06-.6.56-.08a5.51,5.51,0,0,0,3.82-2.16,7,7,0,0,0,1.38-4.75,7.5,7.5,0,0,0-3.7-6.55,10.31,10.31,0,0,0-5.64-1.41H85.42V51.19h16.86A12.54,12.54,0,0,0,105.66,50.74ZM94.4,27a.67.67,0,0,1,.51-.16h1.68c.86,0,1.76,0,2.63,0a4.77,4.77,0,0,1,1.82.37,2.72,2.72,0,0,1,1.56,2.24,2.9,2.9,0,0,1-1.09,2.65,3,3,0,0,1-1.8.67c-1.25,0-2.51,0-3.77,0H94.69a.43.43,0,0,1-.17,0l-.23-.06,0-.3a2.35,2.35,0,0,1,0-.26V30.74c0-1.09,0-2.17,0-3.26A.75.75,0,0,1,94.4,27Zm6.28,17.15a3.81,3.81,0,0,1-.87.1H94.62l-.37,0V41.45q0-1.43,0-2.85a.65.65,0,0,1,.14-.48.49.49,0,0,1,.38-.14l1.92,0c1.18,0,2.41,0,3.62,0a2.82,2.82,0,0,1,2.76,2.66A3.05,3.05,0,0,1,100.68,44.1Z"/><path class="cls-1" d="M236.52,36.35l-2.32-2.79L223.06,20.07a.4.4,0,0,0-.35-.16h-7.09V51.27h8.85V35.51l2.24,2.58q5.56,6.48,11.14,13a.57.57,0,0,0,.5.24h7V20h-8.79Z"/><path class="cls-1" d="M212.89,45.36a16.32,16.32,0,0,0,1.89-7.74c0-4.23,0-8.53,0-12.69,0-1.65,0-3.3,0-4.95v0h-8.92v4.42q0,6.23,0,12.46a13.86,13.86,0,0,1-.29,2.83,4.68,4.68,0,0,1-4.46,4.08,4.76,4.76,0,0,1-4.69-3,9.47,9.47,0,0,1-.67-3.86V20.16a1.77,1.77,0,0,0,0-.23h-8.9V37a18.81,18.81,0,0,0,.52,4.66,12.66,12.66,0,0,0,7.31,9.08,15.55,15.55,0,0,0,10.69.66A11.93,11.93,0,0,0,212.89,45.36Z"/><path class="cls-1" d="M85.69,43.29l-1.87-5Q80.39,29.17,77,20c-.08-.21-.14-.25-.33-.24-3.27,0-6.54,0-9.81,0-.17,0-.18,0-.24.15q-4.69,12.51-9.41,25l-2.33,6.2h9.34c.11,0,.12,0,.17-.14.2-.62.41-1.24.62-1.86s.41-1.24.61-1.86a.6.6,0,0,1,.63-.48H77.31a.57.57,0,0,1,.6.45l.54,1.62c.23.7.47,1.4.69,2.11,0,.14.06.15.22.16h9.3L88,49.45ZM68.33,39.22l3.2-9.45.36-.07.16.2,3.11,9.32Z"/><path class="cls-1" d="M179.54,49.28c4-2.84,6.2-6.87,6.61-12.33a24.66,24.66,0,0,0-.13-4.11.38.38,0,0,0,0-.15H169.56v7.38h7.14l-.25.41a6.21,6.21,0,0,1-1.81,2,7.28,7.28,0,0,1-4.32,1.26h-.06a7,7,0,0,1-5.69-2.62,8.58,8.58,0,0,1-1.8-6.5,7.74,7.74,0,0,1,3.33-5.93,7.44,7.44,0,0,1,5.11-1.16,5.36,5.36,0,0,1,4.53,3s0,0,.07,0l6.59-1.65,2.57-.65h0s0-.08,0-.12a12.82,12.82,0,0,0-5.47-6.52,17.06,17.06,0,0,0-9-2.42c-.53,0-1.08,0-1.63.06a15.89,15.89,0,0,0-8.38,3.07A16.31,16.31,0,0,0,154.14,39a15.69,15.69,0,0,0,9,11.5,16.74,16.74,0,0,0,10.21,1.27A15.19,15.19,0,0,0,179.54,49.28Z"/><path class="cls-2" d="M143.13,50.7l-.59,0A.59.59,0,0,0,143.13,50.7Z"/><path class="cls-2" d="M132.88,18.71c-1.09,3.48-2.18,7-3.25,10.44a.37.37,0,0,1-.44.31c-2,0-4.07,0-6.1,0h-4.4a.68.68,0,0,0-.72.86,1.11,1.11,0,0,0,.38.51c2.8,2.14,5.61,4.29,8.42,6.42a.42.42,0,0,1,.17.56c-.43,1.36-.84,2.72-1.25,4.09-.66,2.15-1.31,4.3-2,6.45a.71.71,0,0,0,.35,1,.77.77,0,0,0,.86-.17l5.56-4.25,3.13-2.39V18a.66.66,0,0,0-.56.26A1.25,1.25,0,0,0,132.88,18.71Z"/><path class="cls-2" d="M133.63,42.5l5.72,4.38,3,2.31a.71.71,0,0,0,1.15-.78s0-.1,0-.15l-3.27-10.55a.36.36,0,0,1,.14-.47q3-2.24,6-4.48c.88-.66,1.77-1.32,2.64-2a.69.69,0,0,0-.08-1.24,1.22,1.22,0,0,0-.47-.07L138,29.5c-.27,0-.39-.06-.46-.32q-.93-3.08-1.89-6.15c-.45-1.47-.91-2.94-1.36-4.42a.75.75,0,0,0-.58-.58c-.05,0-.08,0-.13,0V42.5Z"/><path class="cls-1" d="M142.93,0H124.22L98.86,69.25h18.19l4.54-12H145.2l4.28,12h18.27Zm6,30.77c-.87.67-1.76,1.33-2.64,2q-3,2.25-6,4.48a.36.36,0,0,0-.14.47l3.27,10.55c0,.05,0,.1,0,.15a.71.71,0,0,1-1.15.78l-3-2.31-5.72-4.38h0l-3.13,2.39-5.56,4.25a.77.77,0,0,1-.86.17.71.71,0,0,1-.35-1c.66-2.15,1.31-4.3,2-6.45.41-1.37.82-2.73,1.25-4.09a.42.42,0,0,0-.17-.56c-2.81-2.13-5.62-4.28-8.42-6.42a1.11,1.11,0,0,1-.38-.51.68.68,0,0,1,.72-.86h4.4c2,0,4.07,0,6.1,0a.37.37,0,0,0,.44-.31c1.07-3.49,2.16-7,3.25-10.44a1.25,1.25,0,0,1,.18-.41.66.66,0,0,1,.56-.26s.08,0,.13,0a.75.75,0,0,1,.58.58c.45,1.48.91,2.95,1.36,4.42q1,3.07,1.89,6.15c.07.26.19.33.46.32l10.37,0a1.22,1.22,0,0,1,.47.07A.69.69,0,0,1,149,30.77Z"/></g></g></svg>